# This file uses centimeters as units for non-parametric coordinates.

mtllib simple_helipad.mtl
g default
v -71.094849 -1.788064 47.481003
v -71.094849 -1.788064 62.518997
v -71.094849 1.788064 47.481003
v -71.094849 1.788064 62.518997
v 71.094849 1.788064 47.481003
v 71.094849 1.788064 62.518997
v 71.094849 -1.788064 47.481003
v 71.094849 -1.788064 62.518997
v -71.094849 -1.788064 -62.518997
v -71.094849 -1.788064 -47.481003
v -71.094849 1.788064 -62.518997
v -71.094849 1.788064 -47.481003
v 71.094849 1.788064 -62.518997
v 71.094849 1.788064 -47.481003
v 71.094849 -1.788064 -62.518997
v 71.094849 -1.788064 -47.481003
v 115.709885 -1.000000 -37.596416
v 98.428703 -1.000000 -71.512634
v 71.512634 -1.000000 -98.428696
v 37.596413 -1.000000 -115.709869
v 0.000000 -1.000000 -121.664551
v -37.596413 -1.000000 -115.709862
v -71.512619 -1.000000 -98.428673
v -98.428665 -1.000000 -71.512611
v -115.709831 -1.000000 -37.596401
v -121.664520 -1.000000 0.000000
v -115.709831 -1.000000 37.596401
v -98.428658 -1.000000 71.512604
v -71.512604 -1.000000 98.428650
v -37.596401 -1.000000 115.709816
v -0.000004 -1.000000 121.664505
v 37.596386 -1.000000 115.709808
v 71.512589 -1.000000 98.428642
v 98.428635 -1.000000 71.512596
v 115.709801 -1.000000 37.596390
v 121.664490 -1.000000 0.000000
v 115.709885 1.000000 -37.596416
v 98.428703 1.000000 -71.512634
v 71.512634 1.000000 -98.428696
v 37.596413 1.000000 -115.709869
v 0.000000 1.000000 -121.664551
v -37.596413 1.000000 -115.709862
v -71.512619 1.000000 -98.428673
v -98.428665 1.000000 -71.512611
v -115.709831 1.000000 -37.596401
v -121.664520 1.000000 0.000000
v -115.709831 1.000000 37.596401
v -98.428658 1.000000 71.512604
v -71.512604 1.000000 98.428650
v -37.596401 1.000000 115.709816
v -0.000004 1.000000 121.664505
v 37.596386 1.000000 115.709808
v 71.512589 1.000000 98.428642
v 98.428635 1.000000 71.512596
v 115.709801 1.000000 37.596390
v 121.664490 1.000000 0.000000
v 0.000000 -1.000000 0.000000
v 0.000000 1.000000 0.000000
v 119.374222 -1.000000 -38.787033
v 101.545784 -1.000000 -73.777321
v 101.545784 1.000000 -73.777321
v 119.374222 1.000000 -38.787033
v 73.777321 -1.000000 -101.545776
v 73.777321 1.000000 -101.545776
v 38.787033 -1.000000 -119.374207
v 38.787033 1.000000 -119.374207
v -0.000000 -1.000000 -125.517471
v -0.000000 1.000000 -125.517471
v -38.787033 -1.000000 -119.374199
v -38.787033 1.000000 -119.374199
v -73.777313 -1.000000 -101.545761
v -73.777313 1.000000 -101.545761
v -101.545753 -1.000000 -73.777306
v -101.545753 1.000000 -73.777306
v -119.374176 -1.000000 -38.787022
v -119.374176 1.000000 -38.787022
v -125.517441 -1.000000 0.000000
v -125.517441 1.000000 0.000000
v -119.374176 -1.000000 38.787022
v -119.374176 1.000000 38.787022
v -101.545738 -1.000000 73.777298
v -101.545738 1.000000 73.777298
v -73.777298 -1.000000 101.545731
v -73.777298 1.000000 101.545731
v -38.787022 -1.000000 119.374161
v -38.787022 1.000000 119.374161
v -0.000003 -1.000000 125.517426
v -0.000003 1.000000 125.517426
v 38.787006 -1.000000 119.374153
v 38.787006 1.000000 119.374153
v 73.777283 -1.000000 101.545723
v 73.777283 1.000000 101.545723
v 101.545715 -1.000000 73.777290
v 101.545715 1.000000 73.777290
v 119.374146 -1.000000 38.787010
v 119.374146 1.000000 38.787010
v 125.517410 -1.000000 0.000004
v 125.517410 1.000000 0.000004
v -160.378662 -1.636521 160.378662
v 160.378662 -1.636521 160.378662
v -160.378662 -1.636521 -160.378662
v 160.378662 -1.636521 -160.378662
v -7.518996 -1.788064 61.705017
v 7.518996 -1.788064 61.705017
v -7.518996 1.788064 61.705017
v 7.518996 1.788064 61.705017
v -7.518996 1.788064 -61.705017
v 7.518996 1.788064 -61.705017
v -7.518996 -1.788064 -61.705017
v 7.518996 -1.788064 -61.705017
vt 0.375000 0.000000
vt 0.625000 0.000000
vt 0.375000 0.250000
vt 0.625000 0.250000
vt 0.375000 0.500000
vt 0.625000 0.500000
vt 0.375000 0.750000
vt 0.625000 0.750000
vt 0.375000 1.000000
vt 0.625000 1.000000
vt 0.875000 0.000000
vt 0.875000 0.250000
vt 0.125000 0.000000
vt 0.125000 0.250000
vt 0.375000 0.000000
vt 0.625000 0.000000
vt 0.625000 0.250000
vt 0.375000 0.250000
vt 0.625000 0.500000
vt 0.375000 0.500000
vt 0.625000 0.750000
vt 0.375000 0.750000
vt 0.625000 1.000000
vt 0.375000 1.000000
vt 0.875000 0.000000
vt 0.875000 0.250000
vt 0.125000 0.000000
vt 0.125000 0.250000
vt 0.375000 0.312500
vt 0.387500 0.312500
vt 0.387500 0.688440
vt 0.375000 0.688440
vt 0.400000 0.312500
vt 0.400000 0.688440
vt 0.412500 0.312500
vt 0.412500 0.688440
vt 0.425000 0.312500
vt 0.425000 0.688440
vt 0.437500 0.312500
vt 0.437500 0.688440
vt 0.450000 0.312500
vt 0.450000 0.688440
vt 0.462500 0.312500
vt 0.462500 0.688440
vt 0.475000 0.312500
vt 0.475000 0.688440
vt 0.487500 0.312500
vt 0.487500 0.688440
vt 0.500000 0.312500
vt 0.500000 0.688440
vt 0.512500 0.312500
vt 0.512500 0.688440
vt 0.525000 0.312500
vt 0.525000 0.688440
vt 0.537500 0.312500
vt 0.537500 0.688440
vt 0.550000 0.312500
vt 0.550000 0.688440
vt 0.562500 0.312500
vt 0.562500 0.688440
vt 0.575000 0.312500
vt 0.575000 0.688440
vt 0.587500 0.312500
vt 0.587500 0.688440
vt 0.600000 0.312500
vt 0.600000 0.688440
vt 0.612500 0.312500
vt 0.612500 0.688440
vt 0.625000 0.312500
vt 0.625000 0.688440
vt 0.626409 0.064408
vt 0.648603 0.107966
vt 0.500000 0.150000
vt 0.591842 0.029841
vt 0.548284 0.007647
vt 0.500000 -0.000000
vt 0.451716 0.007647
vt 0.408159 0.029841
vt 0.373591 0.064409
vt 0.351397 0.107966
vt 0.343750 0.156250
vt 0.351397 0.204534
vt 0.373591 0.248091
vt 0.408159 0.282659
vt 0.451716 0.304853
vt 0.500000 0.312500
vt 0.548284 0.304853
vt 0.591841 0.282659
vt 0.626409 0.248091
vt 0.648603 0.204534
vt 0.656250 0.156250
vt 0.648603 0.892034
vt 0.626409 0.935591
vt 0.500000 0.837500
vt 0.591841 0.970159
vt 0.548284 0.992353
vt 0.500000 1.000000
vt 0.451716 0.992353
vt 0.408159 0.970159
vt 0.373591 0.935591
vt 0.351397 0.892034
vt 0.343750 0.843750
vt 0.351397 0.795466
vt 0.373591 0.751909
vt 0.408159 0.717341
vt 0.451716 0.695147
vt 0.500000 0.687500
vt 0.548284 0.695147
vt 0.591842 0.717341
vt 0.626409 0.751908
vt 0.648603 0.795466
vt 0.656250 0.843750
vt 0.375000 0.312500
vt 0.387500 0.312500
vt 0.387500 0.688440
vt 0.375000 0.688440
vt 0.400000 0.312500
vt 0.400000 0.688440
vt 0.412500 0.312500
vt 0.412500 0.688440
vt 0.425000 0.312500
vt 0.425000 0.688440
vt 0.437500 0.312500
vt 0.437500 0.688440
vt 0.450000 0.312500
vt 0.450000 0.688440
vt 0.462500 0.312500
vt 0.462500 0.688440
vt 0.475000 0.312500
vt 0.475000 0.688440
vt 0.487500 0.312500
vt 0.487500 0.688440
vt 0.500000 0.312500
vt 0.500000 0.688440
vt 0.512500 0.312500
vt 0.512500 0.688440
vt 0.525000 0.312500
vt 0.525000 0.688440
vt 0.537500 0.312500
vt 0.537500 0.688440
vt 0.550000 0.312500
vt 0.550000 0.688440
vt 0.562500 0.312500
vt 0.562500 0.688440
vt 0.575000 0.312500
vt 0.575000 0.688440
vt 0.587500 0.312500
vt 0.587500 0.688440
vt 0.600000 0.312500
vt 0.600000 0.688440
vt 0.612500 0.312500
vt 0.612500 0.688440
vt 0.625000 0.312500
vt 0.625000 0.688440
vt 0.375000 0.750000
vt 0.625000 0.750000
vt 0.625000 1.000000
vt 0.375000 1.000000
vt 0.375000 0.000000
vt 0.625000 0.000000
vt 0.625000 0.250000
vt 0.375000 0.250000
vt 0.625000 0.500000
vt 0.375000 0.500000
vt 0.625000 0.750000
vt 0.375000 0.750000
vt 0.625000 1.000000
vt 0.375000 1.000000
vt 0.875000 0.000000
vt 0.875000 0.250000
vt 0.125000 0.000000
vt 0.125000 0.250000
vn -1.000000 0.000000 0.000000
vn -1.000000 0.000000 0.000000
vn -1.000000 0.000000 0.000000
vn -1.000000 0.000000 0.000000
vn 0.000000 1.000000 0.000000
vn 0.000000 1.000000 0.000000
vn 0.000000 1.000000 0.000000
vn 0.000000 1.000000 0.000000
vn 1.000000 0.000000 0.000000
vn 1.000000 0.000000 0.000000
vn 1.000000 0.000000 0.000000
vn 1.000000 0.000000 0.000000
vn 0.000000 -1.000000 0.000000
vn 0.000000 -1.000000 0.000000
vn 0.000000 -1.000000 0.000000
vn 0.000000 -1.000000 0.000000
vn 0.000000 0.000000 1.000000
vn 0.000000 0.000000 1.000000
vn 0.000000 0.000000 1.000000
vn 0.000000 0.000000 1.000000
vn 0.000000 0.000000 -1.000000
vn 0.000000 0.000000 -1.000000
vn 0.000000 0.000000 -1.000000
vn 0.000000 0.000000 -1.000000
vn -1.000000 0.000000 0.000000
vn -1.000000 0.000000 0.000000
vn -1.000000 0.000000 0.000000
vn -1.000000 0.000000 0.000000
vn 0.000000 1.000000 0.000000
vn 0.000000 1.000000 0.000000
vn 0.000000 1.000000 0.000000
vn 0.000000 1.000000 0.000000
vn 1.000000 0.000000 0.000000
vn 1.000000 0.000000 0.000000
vn 1.000000 0.000000 0.000000
vn 1.000000 0.000000 0.000000
vn 0.000000 -1.000000 0.000000
vn 0.000000 -1.000000 0.000000
vn 0.000000 -1.000000 0.000000
vn 0.000000 -1.000000 0.000000
vn 0.000000 0.000000 1.000000
vn 0.000000 0.000000 1.000000
vn 0.000000 0.000000 1.000000
vn 0.000000 0.000000 1.000000
vn 0.000000 0.000000 -1.000000
vn 0.000000 0.000000 -1.000000
vn 0.000000 0.000000 -1.000000
vn 0.000000 0.000000 -1.000000
vn 0.951057 0.000000 -0.309016
vn 0.809017 0.000000 -0.587785
vn 0.809017 0.000000 -0.587785
vn 0.951057 0.000000 -0.309016
vn 0.587785 0.000000 -0.809017
vn 0.587785 0.000000 -0.809017
vn 0.309017 0.000000 -0.951057
vn 0.309017 0.000000 -0.951057
vn -0.000000 0.000000 -1.000000
vn -0.000000 0.000000 -1.000000
vn -0.309017 0.000000 -0.951056
vn -0.309017 0.000000 -0.951056
vn -0.587785 0.000000 -0.809017
vn -0.587785 0.000000 -0.809017
vn -0.809017 0.000000 -0.587785
vn -0.809017 0.000000 -0.587785
vn -0.951057 0.000000 -0.309017
vn -0.951057 0.000000 -0.309017
vn -1.000000 0.000000 0.000000
vn -1.000000 0.000000 0.000000
vn -0.951057 0.000000 0.309017
vn -0.951057 0.000000 0.309017
vn -0.809017 0.000000 0.587785
vn -0.809017 0.000000 0.587785
vn -0.587785 0.000000 0.809017
vn -0.587785 0.000000 0.809017
vn -0.309017 0.000000 0.951057
vn -0.309017 0.000000 0.951057
vn 0.000000 0.000000 1.000000
vn 0.000000 0.000000 1.000000
vn 0.309017 0.000000 0.951057
vn 0.309017 0.000000 0.951057
vn 0.587785 0.000000 0.809017
vn 0.587785 0.000000 0.809017
vn 0.809017 0.000000 0.587785
vn 0.809017 0.000000 0.587785
vn 0.951057 0.000000 0.309017
vn 0.951057 0.000000 0.309017
vn 1.000000 0.000000 0.000001
vn 1.000000 0.000000 0.000001
vn 0.000000 -1.000000 0.000000
vn 0.000000 -1.000000 0.000000
vn 0.000000 -1.000000 0.000000
vn 0.000000 -1.000000 0.000000
vn 0.000000 -1.000000 0.000000
vn 0.000000 -1.000000 0.000000
vn 0.000000 -1.000000 0.000000
vn 0.000000 -1.000000 0.000000
vn 0.000000 -1.000000 0.000000
vn 0.000000 -1.000000 0.000000
vn 0.000000 -1.000000 0.000000
vn 0.000000 -1.000000 0.000000
vn 0.000000 -1.000000 0.000000
vn 0.000000 -1.000000 0.000000
vn 0.000000 -1.000000 0.000000
vn 0.000000 -1.000000 -0.000000
vn 0.000000 -1.000000 -0.000000
vn 0.000000 -1.000000 0.000000
vn 0.000000 -1.000000 0.000000
vn 0.000000 -1.000000 0.000000
vn 0.000000 -1.000000 0.000000
vn 0.000000 1.000000 0.000000
vn 0.000000 1.000000 0.000000
vn 0.000000 1.000000 -0.000000
vn 0.000000 1.000000 0.000000
vn 0.000000 1.000000 -0.000000
vn 0.000000 1.000000 -0.000000
vn 0.000000 1.000000 0.000000
vn 0.000000 1.000000 0.000000
vn 0.000000 1.000000 0.000000
vn 0.000000 1.000000 0.000000
vn 0.000000 1.000000 0.000000
vn 0.000000 1.000000 0.000000
vn 0.000000 1.000000 0.000000
vn 0.000000 1.000000 0.000000
vn 0.000000 1.000000 0.000000
vn 0.000000 1.000000 0.000000
vn 0.000000 1.000000 -0.000000
vn 0.000000 1.000000 0.000000
vn 0.000000 1.000000 0.000000
vn 0.000000 1.000000 0.000000
vn 0.000000 1.000000 0.000000
vn 0.000000 -1.000000 0.000000
vn 0.000000 -1.000000 0.000000
vn 0.000000 1.000000 0.000000
vn 0.000000 1.000000 0.000000
vn 0.000000 -1.000000 0.000000
vn 0.000000 1.000000 0.000000
vn 0.000000 -1.000000 0.000000
vn 0.000000 1.000000 -0.000000
vn 0.000000 -1.000000 0.000000
vn 0.000000 1.000000 -0.000000
vn 0.000000 -1.000000 0.000000
vn 0.000000 1.000000 0.000000
vn 0.000000 -1.000000 0.000000
vn 0.000000 1.000000 0.000000
vn 0.000000 -1.000000 0.000000
vn 0.000000 1.000000 0.000000
vn 0.000000 -1.000000 0.000000
vn 0.000000 1.000000 0.000000
vn 0.000000 -1.000000 0.000000
vn 0.000000 1.000000 0.000000
vn 0.000000 -1.000000 0.000000
vn 0.000000 1.000000 0.000000
vn 0.000000 -1.000000 0.000000
vn 0.000000 1.000000 0.000000
vn 0.000000 -1.000000 0.000000
vn 0.000000 1.000000 0.000000
vn 0.000000 -1.000000 0.000000
vn 0.000000 1.000000 0.000000
vn 0.000000 -1.000000 -0.000000
vn 0.000000 1.000000 0.000000
vn 0.000000 -1.000000 -0.000000
vn 0.000000 1.000000 0.000000
vn 0.000000 -1.000000 0.000000
vn 0.000000 1.000000 0.000000
vn 0.000000 -1.000000 0.000000
vn 0.000000 1.000000 0.000000
vn 0.000000 -1.000000 0.000000
vn 0.000000 1.000000 0.000000
vn 0.000000 -1.000000 0.000000
vn 0.000000 1.000000 0.000000
vn 0.000000 -1.000000 0.000000
vn 0.000000 -1.000000 0.000000
vn 0.000000 -1.000000 0.000000
vn 0.000000 -1.000000 0.000000
vn 0.000000 1.000000 0.000000
vn 0.000000 1.000000 0.000000
vn 0.000000 1.000000 0.000000
vn 0.000000 1.000000 0.000000
vn 0.000000 0.000000 1.000000
vn 0.000000 0.000000 1.000000
vn 0.000000 0.000000 1.000000
vn 0.000000 0.000000 1.000000
vn 0.000000 1.000000 0.000000
vn 0.000000 1.000000 0.000000
vn 0.000000 1.000000 0.000000
vn 0.000000 1.000000 0.000000
vn 0.000000 0.000000 -1.000000
vn 0.000000 0.000000 -1.000000
vn 0.000000 0.000000 -1.000000
vn 0.000000 0.000000 -1.000000
vn 0.000000 -1.000000 0.000000
vn 0.000000 -1.000000 0.000000
vn 0.000000 -1.000000 0.000000
vn 0.000000 -1.000000 0.000000
vn 1.000000 0.000000 0.000000
vn 1.000000 0.000000 0.000000
vn 1.000000 0.000000 0.000000
vn 1.000000 0.000000 0.000000
vn -1.000000 0.000000 0.000000
vn -1.000000 0.000000 0.000000
vn -1.000000 0.000000 0.000000
vn -1.000000 0.000000 0.000000
s off
g pCube5
usemtl lambert18SG
f 1/1/1 2/2/2 4/4/3 3/3/4
f 3/3/5 4/4/6 6/6/7 5/5/8
f 5/5/9 6/6/10 8/8/11 7/7/12
f 7/7/13 8/8/14 2/10/15 1/9/16
f 2/2/17 8/11/18 6/12/19 4/4/20
f 7/13/21 1/1/22 3/3/23 5/14/24
f 9/15/25 10/16/26 12/17/27 11/18/28
f 11/18/29 12/17/30 14/19/31 13/20/32
f 13/20/33 14/19/34 16/21/35 15/22/36
f 15/22/37 16/21/38 10/23/39 9/24/40
f 10/16/41 16/25/42 14/26/43 12/17/44
f 15/27/45 9/15/46 11/18/47 13/28/48
s 1
f 59/29/49 60/30/50 61/31/51 62/32/52
f 60/30/50 63/33/53 64/34/54 61/31/51
f 63/33/53 65/35/55 66/36/56 64/34/54
f 65/35/55 67/37/57 68/38/58 66/36/56
f 67/37/57 69/39/59 70/40/60 68/38/58
f 69/39/59 71/41/61 72/42/62 70/40/60
f 71/41/61 73/43/63 74/44/64 72/42/62
f 73/43/63 75/45/65 76/46/66 74/44/64
f 75/45/65 77/47/67 78/48/68 76/46/66
f 77/47/67 79/49/69 80/50/70 78/48/68
f 79/49/69 81/51/71 82/52/72 80/50/70
f 81/51/71 83/53/73 84/54/74 82/52/72
f 83/53/73 85/55/75 86/56/76 84/54/74
f 85/55/75 87/57/77 88/58/78 86/56/76
f 87/57/77 89/59/79 90/60/80 88/58/78
f 89/59/79 91/61/81 92/62/82 90/60/80
f 91/61/81 93/63/83 94/64/84 92/62/82
f 93/63/83 95/65/85 96/66/86 94/64/84
f 95/65/85 97/67/87 98/68/88 96/66/86
f 97/67/87 59/69/49 62/70/52 98/68/88
s 2
usemtl initialShadingGroup
f 18/71/89 17/72/90 57/73/91
f 19/74/92 18/71/89 57/73/91
f 20/75/93 19/74/92 57/73/91
f 21/76/94 20/75/93 57/73/91
f 22/77/95 21/76/94 57/73/91
f 23/78/96 22/77/95 57/73/91
f 24/79/97 23/78/96 57/73/91
f 25/80/98 24/79/97 57/73/91
f 26/81/99 25/80/98 57/73/91
f 27/82/100 26/81/99 57/73/91
f 28/83/101 27/82/100 57/73/91
f 29/84/102 28/83/101 57/73/91
f 30/85/103 29/84/102 57/73/91
f 31/86/104 30/85/103 57/73/91
f 32/87/105 31/86/104 57/73/91
f 33/88/106 32/87/105 57/73/91
f 34/89/107 33/88/106 57/73/91
f 35/90/108 34/89/107 57/73/91
f 36/91/109 35/90/108 57/73/91
f 17/72/90 36/91/109 57/73/91
s 3
usemtl lambert19SG
f 37/92/110 38/93/111 58/94/112
f 38/93/111 39/95/113 58/94/112
f 39/95/113 40/96/114 58/94/112
f 40/96/114 41/97/115 58/94/112
f 41/97/115 42/98/116 58/94/112
f 42/98/116 43/99/117 58/94/112
f 43/99/117 44/100/118 58/94/112
f 44/100/118 45/101/119 58/94/112
f 45/101/119 46/102/120 58/94/112
f 46/102/120 47/103/121 58/94/112
f 47/103/121 48/104/122 58/94/112
f 48/104/122 49/105/123 58/94/112
f 49/105/123 50/106/124 58/94/112
f 50/106/124 51/107/125 58/94/112
f 51/107/125 52/108/126 58/94/112
f 52/108/126 53/109/127 58/94/112
f 53/109/127 54/110/128 58/94/112
f 54/110/128 55/111/129 58/94/112
f 55/111/129 56/112/130 58/94/112
f 56/112/130 37/92/110 58/94/112
s 2
usemtl initialShadingGroup
f 17/113/90 18/114/89 60/30/131 59/29/132
s 3
usemtl lambert18SG
f 38/115/111 37/116/110 62/32/133 61/31/134
s 2
usemtl initialShadingGroup
f 18/114/89 19/117/92 63/33/135 60/30/131
s 3
usemtl lambert18SG
f 39/118/113 38/115/111 61/31/134 64/34/136
s 2
usemtl initialShadingGroup
f 19/117/92 20/119/93 65/35/137 63/33/135
s 3
usemtl lambert18SG
f 40/120/114 39/118/113 64/34/136 66/36/138
s 2
usemtl initialShadingGroup
f 20/119/93 21/121/94 67/37/139 65/35/137
s 3
usemtl lambert18SG
f 41/122/115 40/120/114 66/36/138 68/38/140
s 2
usemtl initialShadingGroup
f 21/121/94 22/123/95 69/39/141 67/37/139
s 3
usemtl lambert18SG
f 42/124/116 41/122/115 68/38/140 70/40/142
s 2
usemtl initialShadingGroup
f 22/123/95 23/125/96 71/41/143 69/39/141
s 3
usemtl lambert18SG
f 43/126/117 42/124/116 70/40/142 72/42/144
s 2
usemtl initialShadingGroup
f 23/125/96 24/127/97 73/43/145 71/41/143
s 3
usemtl lambert18SG
f 44/128/118 43/126/117 72/42/144 74/44/146
s 2
usemtl initialShadingGroup
f 24/127/97 25/129/98 75/45/147 73/43/145
s 3
usemtl lambert18SG
f 45/130/119 44/128/118 74/44/146 76/46/148
s 2
usemtl initialShadingGroup
f 25/129/98 26/131/99 77/47/149 75/45/147
s 3
usemtl lambert18SG
f 46/132/120 45/130/119 76/46/148 78/48/150
s 2
usemtl initialShadingGroup
f 26/131/99 27/133/100 79/49/151 77/47/149
s 3
usemtl lambert18SG
f 47/134/121 46/132/120 78/48/150 80/50/152
s 2
usemtl initialShadingGroup
f 27/133/100 28/135/101 81/51/153 79/49/151
s 3
usemtl lambert18SG
f 48/136/122 47/134/121 80/50/152 82/52/154
s 2
usemtl initialShadingGroup
f 28/135/101 29/137/102 83/53/155 81/51/153
s 3
usemtl lambert18SG
f 49/138/123 48/136/122 82/52/154 84/54/156
s 2
usemtl initialShadingGroup
f 29/137/102 30/139/103 85/55/157 83/53/155
s 3
usemtl lambert18SG
f 50/140/124 49/138/123 84/54/156 86/56/158
s 2
usemtl initialShadingGroup
f 30/139/103 31/141/104 87/57/159 85/55/157
s 3
usemtl lambert18SG
f 51/142/125 50/140/124 86/56/158 88/58/160
s 2
usemtl initialShadingGroup
f 31/141/104 32/143/105 89/59/161 87/57/159
s 3
usemtl lambert18SG
f 52/144/126 51/142/125 88/58/160 90/60/162
s 2
usemtl initialShadingGroup
f 32/143/105 33/145/106 91/61/163 89/59/161
s 3
usemtl lambert18SG
f 53/146/127 52/144/126 90/60/162 92/62/164
s 2
usemtl initialShadingGroup
f 33/145/106 34/147/107 93/63/165 91/61/163
s 3
usemtl lambert18SG
f 54/148/128 53/146/127 92/62/164 94/64/166
s 2
usemtl initialShadingGroup
f 34/147/107 35/149/108 95/65/167 93/63/165
s 3
usemtl lambert18SG
f 55/150/129 54/148/128 94/64/166 96/66/168
s 2
usemtl initialShadingGroup
f 35/149/108 36/151/109 97/67/169 95/65/167
s 3
usemtl lambert18SG
f 56/152/130 55/150/129 96/66/168 98/68/170
s 2
usemtl initialShadingGroup
f 36/151/109 17/153/90 59/69/132 97/67/169
s 3
usemtl lambert18SG
f 37/154/110 56/152/130 98/68/170 62/70/133
s off
usemtl lambert17SG
f 101/155/171 102/156/172 100/157/173 99/158/174
f 100/157/175 102/156/176 101/155/177 99/158/178
usemtl lambert18SG
f 103/159/179 104/160/180 106/161/181 105/162/182
f 105/162/183 106/161/184 108/163/185 107/164/186
f 107/164/187 108/163/188 110/165/189 109/166/190
f 109/166/191 110/165/192 104/167/193 103/168/194
f 104/160/195 110/169/196 108/170/197 106/161/198
f 109/171/199 103/159/200 105/162/201 107/172/202
